HIERARCHY
ROOT Hips
{
  OFFSET 1.44925e-005 102.336 -0.101585
  CHANNELS 6 Xposition Yposition Zposition Zrotation Xrotation Yrotation
  JOINT LeftUpLeg
  {
    OFFSET 8.9458 -8.66707 0.101652
    CHANNELS 3 Zrotation Xrotation Yrotation
    JOINT LeftLeg
    {
      OFFSET 0 -44.4227 1.3727
      CHANNELS 3 Zrotation Xrotation Yrotation
      JOINT LeftFoot
      {
        OFFSET -0.253549 -42.0924 -1.46059
        CHANNELS 3 Zrotation Xrotation Yrotation
        JOINT LeftToes
        {
          OFFSET -0.04 -4.41509 8.4991
          CHANNELS 3 Zrotation Xrotation Yrotation
          End Site
          {
            OFFSET 0.08 -0.047448 9.77979
          }
        }
      }
    }
  }
  JOINT Spine
  {
    OFFSET 0 11.8905 0
    CHANNELS 3 Zrotation Xrotation Yrotation
    JOINT Spine1
    {
      OFFSET 0 25.6574 0.127663
      CHANNELS 3 Zrotation Xrotation Yrotation
      JOINT RightShoulder
      {
        OFFSET -8.99 -0.362252 -0.22
        CHANNELS 3 Zrotation Xrotation Yrotation
        JOINT RightArm
        {
          OFFSET -10.2827 -0.00338 0.322123
          CHANNELS 3 Zrotation Xrotation Yrotation
          JOINT RightForeArm
          {
            OFFSET -26.364 0.099144 -1.42434
            CHANNELS 3 Zrotation Xrotation Yrotation
            JOINT RightHand
            {
              OFFSET -22.0324 0.085362 1.02216
              CHANNELS 3 Zrotation Xrotation Yrotation
              End Site
              {
                OFFSET -13.3284 -0.6 1.50291
              }
            }
          }
        }
      }
      JOINT LeftShoulder1
      {
        OFFSET 8.99 -0.362252 -0.22
        CHANNELS 3 Zrotation Xrotation Yrotation
        JOINT LeftArm
        {
          OFFSET 10.2827 -0.00337999 0.322123
          CHANNELS 3 Zrotation Xrotation Yrotation
          JOINT LeftForeArm
          {
            OFFSET 26.2597 0.099144 -1.42434
            CHANNELS 3 Zrotation Xrotation Yrotation
            JOINT LeftHand
            {
              OFFSET 22.0902 0.085362 1.02216
              CHANNELS 3 Zrotation Xrotation Yrotation
              End Site
              {
                OFFSET 13.419 -0.6 1.50291
              }
            }
          }
        }
      }
      JOINT Head
      {
        OFFSET 0 8.73416 0.011341
        CHANNELS 3 Zrotation Xrotation Yrotation
        End Site
        {
          OFFSET -0.29 12.7742 2.51395
        }
      }
    }
  }
  JOINT RightUpLeg
  {
    OFFSET -8.9458 -8.66707 0.101652
    CHANNELS 3 Zrotation Xrotation Yrotation
    JOINT RightLeg
    {
      OFFSET 0 -44.4227 1.3727
      CHANNELS 3 Zrotation Xrotation Yrotation
      JOINT RightFoot
      {
        OFFSET 0.253549 -42.0924 -1.46059
        CHANNELS 3 Zrotation Xrotation Yrotation
        JOINT RightToes
        {
          OFFSET 0.04 -4.41509 8.4991
          CHANNELS 3 Zrotation Xrotation Yrotation
          End Site
          {
            OFFSET -0.08 -0.137448 9.77979
          }
        }
      }
    }
  }
}
MOTION
Frames:	21
Frame Time:	0.0333333
53.0542 95.8424 1.45905 -9.52363 2.83512 -91.2583 2.05699 21.6296 6.84958 0.928566 27.4713 16.7937 -17.6876 -27.2643 -2.99294 -1.32533e-009 8.75226e-006 -1.4724e-008 17.808 12.8157 4.16223 -12.6136 0.360018 8.4954 16.6769 0.826624 -0.896886 50.7709 -26.4068 88.4095 10.2119 56.7025 -2.34238 -15.8202 8.36648 6.36896 -42.6648 3.31384 -3.23637 -28.8057 3.80115 8.98541 3.48094 30.8006 -27.976 5.82328 9.61819 -0.917488 1.95858 -0.304227 -14.9523 2.36536 -18.9033 -7.4901 1.42116 22.4525 -18.419 2.15629 -5.79016 -0.197811 0.0462048 0.000530889 0.662642 
48.7645 95.2879 0.630982 -8.68127 4.48971 -94.1084 4.88019 18.0813 8.77676 1.17772 38.5604 15.8428 -21.1191 -20.6629 -2.40588 -1.32533e-009 8.75226e-006 -1.4724e-008 22.5933 13.4135 5.16641 -16.0995 -0.538956 10.8159 12.7027 0.694417 -1.0921 56.7706 -23.2216 95.1573 19.1848 61.9178 -17.2587 -11.4543 8.87278 5.77688 -41.7826 3.25106 -3.23913 -25.5242 0.63325 22.8849 7.23577 33.895 -34.6943 5.82328 9.61819 -0.917488 1.79766 0.206265 -15.5269 6.69668 -20.9136 -5.315 -1.01937 28.7659 -16.0843 -3.3029 -5.42371 -0.10429 0.0462048 0.000530889 0.662642 
44.9947 94.8864 -0.19246 -8.30738 6.13261 -94.0504 8.0623 10.7904 6.20285 1.37349 54.0495 16.0697 -16.8011 -8.45191 -0.155281 -1.32533e-009 8.75226e-006 -1.4724e-008 24.8753 13.4726 5.05878 -16.4922 0.0176556 11.4427 11.2299 0.561543 -1.63221 60.6976 -21.7198 97.9431 15.9812 61.5309 -14.7075 -9.45957 9.0977 5.37812 -40.2681 3.12313 -3.19878 -21.4223 -5.7131 35.7139 11.5733 35.0689 -44.3155 5.82328 9.61819 -0.917488 1.99179 -1.45842 -15.7568 9.91402 -21.3783 -0.740519 -1.22287 33.7785 -19.762 -3.7189 -8.68573 -0.197501 0.0462048 0.000530889 0.662642 
41.7408 94.5428 -0.74242 -8.49702 7.57305 -91.7063 9.79971 1.72597 0.535683 1.88226 69.6552 12.5188 -10.3407 2.30313 0.908027 -1.32533e-009 8.75226e-006 -1.4724e-008 26.1747 13.0775 4.06458 -14.3372 1.49815 10.81 11.4926 0.432054 -2.35179 58.9374 -22.7779 96.2784 13.6203 55.6447 -11.7698 -11.7734 8.83719 5.80766 -38.5201 2.97506 -3.1445 -18.2049 -11.366 46.5728 15.1048 33.9331 -55.0791 5.82328 9.61819 -0.917488 1.65106 -3.33236 -16.3841 11.5079 -20.3075 -0.849495 -1.31591 36.653 -21.6002 -0.938846 -12.7621 -0.249954 0.0462048 0.000530889 0.662642 
38.488 94.844 -1.0749 -8.92524 8.50646 -90.3089 8.89764 -6.05603 -4.23386 4.13344 81.8309 4.81605 -7.29841 4.68391 0.756221 -1.32533e-009 8.75226e-006 -1.4724e-008 26.7722 13.012 3.5955 -11.9081 2.6007 10.3928 12.0281 0.346614 -2.82819 55.5804 -24.9623 92.2122 8.9312 51.0896 -2.94595 -14.051 8.57193 6.21478 -37.0552 2.86105 -3.11552 -17.8779 -15.0886 53.3339 19.5899 32.3565 -66.4224 5.82328 9.61819 -0.917488 0.500273 -3.93775 -17.3309 12.0033 -17.5956 -2.76643 -1.29653 36.6899 -20.7977 0.577583 -15.042 -0.187298 0.0462048 0.000530889 0.662642 
35.052 95.93 -1.399 -9.09633 8.36206 -91.3446 6.37899 -12.2812 -6.11671 77.3311 89.4399 -70.843 -6.45005 0.440027 0.434807 -1.32533e-009 8.75226e-006 -1.4724e-008 26.076 13.2517 4.10652 -10.6731 3.07632 10.7166 12.899 0.334494 -2.91525 52.8403 -26.8291 86.822 3.2447 42.9355 9.32955 -12.7279 8.79921 5.24582 -36.0997 2.78633 -3.09316 -20.2677 -18.2008 54.5818 24.9057 30.3886 -76.7428 5.82328 9.61819 -0.917488 -0.751912 -3.84832 -17.7062 11.4665 -13.8856 -3.75692 -0.904196 34.7297 -18.7422 0.432919 -16.0411 -0.195505 0.0462048 0.000530889 0.662642 
31.6315 97.1105 -1.75756 -9.10105 7.40075 -92.9694 3.64452 -18.033 -6.36958 171.794 85.7141 -162.064 -6.00348 -4.45504 0.182316 -1.32533e-009 8.75226e-006 -1.4724e-008 24.6026 13.3389 4.58244 -10.3532 3.28538 10.9463 15.12 0.413341 -2.6147 46.2361 -27.1677 78.2367 3.49669 23.8403 19.1877 -9.52017 9.25611 3.1513 -35.6617 2.74561 -3.06678 -24.2179 -21.2737 50.4119 28.7835 28.1075 -84.1187 5.82328 9.61819 -0.917488 -1.45187 -3.88612 -16.9999 9.8339 -10.0773 -4.3013 0.0896428 32.3993 -16.5437 1.22535 -17.2996 -0.128836 0.0462048 0.000530889 0.662642 
28.201 98.0101 -2.16753 -9.28181 6.38309 -93.9475 1.34464 -23.1132 -6.38888 171.757 84.6122 -155.943 -4.49226 -7.38268 0.0413338 -1.32533e-009 8.75226e-006 -1.4724e-008 23.0222 13.2517 4.4075 -10.2407 3.08228 10.441 18.5573 0.61209 -1.93718 45.516 -28.1433 71.1764 10.2215 10.0377 29.6846 -6.9622 9.57436 0.651361 -35.6976 2.74339 -3.05566 -29.0291 -23.5521 41.55 31.0342 26.343 -88.4873 5.82328 9.61819 -0.917488 -1.73291 -3.56459 -15.517 7.73368 -6.04207 -5.56297 1.58145 29.8696 -14.3877 2.66464 -18.6629 0.0156109 0.0462048 0.000530889 0.662642 
24.7221 98.7413 -2.67497 -9.71272 5.49595 -94.7834 -0.0250666 -26.7535 -5.91929 163.627 86.7237 -143.762 -3.44221 -10.0393 -0.0311675 -1.32533e-009 8.75226e-006 -1.4724e-008 21.1118 13.391 3.89788 -9.83003 2.21147 9.39994 22.1644 0.925079 -1.02225 47.2047 -30.1498 64.2939 19.9733 5.55107 40.8998 -4.43871 9.78702 -2.18783 -35.8342 2.75142 -3.05296 -34.2035 -24.3431 29.1147 33.1335 25.3802 -90.9248 5.82328 9.61819 -0.917488 -2.04594 -2.22675 -13.4703 5.98657 -1.58969 -6.37308 3.09845 26.7774 -13.2187 2.83567 -19.3932 0.0467641 0.0462048 0.000530889 0.662642 
21.2721 99.332 -3.29577 -10.1873 4.4857 -95.801 -0.388468 -29.1027 -4.60407 25.6346 87.7886 -5.30451 -4.43774 -12.844 -0.143218 -1.32533e-009 8.75226e-006 -1.4724e-008 18.3581 13.7336 3.32007 -8.9116 0.892536 8.05945 25.6536 1.27393 -0.184318 46.7761 -31.2578 55.2256 30.3229 5.64571 52.0551 -2.35754 9.89007 -5.52124 -35.4942 2.71361 -3.01699 -38.9316 -23.7561 14.1924 35.7891 25.2798 -91.9461 5.82328 9.61819 -0.917488 -2.34867 -0.359759 -10.7229 4.69023 2.7419 -6.98439 3.59082 23.6716 -12.1445 2.33778 -19.9977 0.00417288 0.0462048 0.000530889 0.662642 
17.8862 99.6478 -3.9992 -10.4463 3.33227 -96.3861 -0.261278 -30.6293 -2.91907 5.36248 80.2555 14.5289 -5.80371 -14.3428 -0.271349 -1.32533e-009 8.75226e-006 -1.4724e-008 14.9586 13.7993 2.61137 -7.67225 -0.327368 6.43862 29.4327 1.55904 0.277086 44.8417 -31.9848 44.236 39.7232 9.44316 61.7815 -2.07615 9.91377 -8.38729 -34.4918 2.60535 -2.91473 -42.3353 -21.9731 -2.79611 38.5241 26.6202 -91.0007 5.82328 9.61819 -0.917488 -2.27817 1.1477 -7.61139 3.7685 6.44217 -7.68094 3.2026 21.1703 -11.1285 2.86841 -20.9479 0.081884 0.0462048 0.000530889 0.662642 
14.5696 99.7235 -4.73643 -10.432 2.39817 -96.3186 0.161659 -31.0357 -0.9957 2.67667 69.79 18.0698 -6.06347 -14.6074 -0.301314 -1.32533e-009 8.75226e-006 -1.4724e-008 11.3788 13.555 1.85548 -6.08412 -1.16125 4.69452 33.3414 1.72393 0.322116 40.9068 -32.6372 31.0599 46.4214 15.1468 69.2824 -2.03265 9.92665 -10.3373 -32.9745 2.4347 -2.73055 -43.9913 -19.235 -20.9343 39.5431 29.8817 -87.0316 5.82328 9.61819 -0.917488 -1.93565 2.05189 -4.80168 3.50907 9.6892 -7.67493 2.6339 18.8305 -11.4716 3.66644 -21.6867 0.195772 0.0462048 0.000530889 0.662642 
11.2835 99.6722 -5.4801 -10.3269 1.85547 -95.9146 0.898877 -29.8221 1.37049 1.82315 56.4797 19.5307 -6.06597 -14.215 -0.282494 -1.32533e-009 8.75226e-006 -1.4724e-008 7.28714 13.4239 1.13787 -3.36708 -1.71686 2.81537 36.3727 1.7859 0.187851 35.6237 -32.7359 15.7175 50.6669 20.5961 74.4766 -1.04409 9.88677 -11.7999 -30.805 2.1808 -2.40835 -44.7017 -16.6764 -38.0526 36.9283 34.1654 -79.4691 5.82328 9.61819 -0.917488 -1.83938 2.47747 -2.1187 3.96164 13.0101 -7.15139 2.13126 16.0212 -13.0363 3.34121 -22.0876 0.164312 0.0462048 0.000530889 0.662642 
7.91075 99.429 -6.19134 -10.2721 1.36681 -94.8205 1.17168 -27.409 3.56723 1.32235 41.7867 19.0236 -6.72787 -12.7382 -0.23938 -1.32533e-009 8.75226e-006 -1.4724e-008 2.07627 13.5134 0.0618804 0.925358 -2.01607 0.292213 37.5318 1.79657 0.110767 31.0324 -31.5059 -0.248459 53.2545 23.7693 76.8918 -0.554651 9.85749 -12.4914 -27.5225 1.79907 -1.83923 -45.6046 -15.1349 -52.9475 30.9543 38.2444 -68.1371 5.82328 9.61819 -0.917488 -2.06824 2.49466 1.23132 4.73402 16.6034 -6.58907 1.89682 12.8907 -15.3614 3.14143 -22.8018 0.155704 0.0462048 0.000530889 0.662642 
4.33316 98.779 -6.77635 -10.1675 1.51892 -92.2404 0.443618 -24.8706 4.78188 0.998856 28.6308 18.4351 -7.85397 -10.9191 -0.176408 -1.32533e-009 8.75226e-006 -1.4724e-008 -3.36358 13.5273 -1.82092 5.81444 -1.83988 -3.10699 36.6803 1.77939 0.145599 28.528 -29.2847 -14.5531 54.2217 23.3618 76.1976 -1.40582 9.90833 -12.3472 -22.8122 1.31181 -0.996193 -45.2494 -13.7249 -66.3071 21.5067 40.9614 -51.1728 5.82328 9.61819 -0.917488 -2.14578 2.33042 5.21377 5.82812 19.8745 -6.32463 2.15263 10.7581 -18.4301 4.29047 -24.0958 0.355385 0.0462048 0.000530889 0.662642 
0.484169 97.7594 -7.19777 -9.92212 1.31029 -89.5919 -0.65245 -22.8065 4.33977 0.244795 19.8173 20.3143 -8.03326 -10.0216 -0.121268 -1.32533e-009 8.75226e-006 -1.4724e-008 -7.70251 13.2368 -4.10957 9.95299 -1.11061 -6.65431 34.5815 1.72753 0.21066 27.1762 -26.7509 -26.4631 54.3231 19.9275 73.2382 -2.45283 9.97013 -12.2302 -16.5032 0.796595 0.0853886 -46.4975 -13.5939 -79.4627 10.1111 43.752 -29.7059 5.82328 9.61819 -0.917488 -1.78663 2.297 8.95657 7.35265 22.2419 -6.29203 2.85114 10.5079 -21.9647 5.28158 -25.5537 0.561697 0.0462048 0.000530889 0.662642 
-3.64875 96.6696 -7.49929 -9.51024 1.2033 -86.983 -1.61682 -21.3892 1.96452 -1.08164 16.517 24.2471 -5.47971 -8.87379 -0.0277797 -1.32533e-009 8.75226e-006 -1.4724e-008 -11.4193 12.7501 -5.9128 13.2776 -0.239045 -9.4796 32.2862 1.6495 0.231418 25.5979 -23.8882 -35.9998 54.3292 15.6725 69.8424 -2.54775 9.97846 -12.469 -8.97222 0.328492 1.52674 -61.8526 -12.7023 -93.5199 -6.15588 56.7437 -5.40499 5.82328 9.61819 -0.917488 -1.13482 2.29397 12.0063 8.40045 23.8073 -6.56005 3.80599 11.874 -24.2544 5.68614 -27.1197 0.704483 0.0462048 0.000530889 0.662642 
-7.99473 95.6799 -7.65827 -9.09408 0.803026 -85.8662 -3.46911 -21.0351 1.6403 -0.757552 18.4053 23.6414 -0.22559 -6.0862 0.0131642 -1.32533e-009 8.75226e-006 -1.4724e-008 -15.5564 12.6284 -6.89732 16.4135 0.0211757 -11.464 30.5512 1.58016 0.218434 23.5081 -21.5003 -42.8138 53.1544 12.5379 67.3754 -2.05149 9.94783 -12.3704 -2.22001 0.0188523 3.30863 -66.1267 -9.07161 -101.075 -16.4635 56.1226 12.4107 5.82328 9.61819 -0.917488 -0.378851 1.8683 14.2916 7.62407 24.6073 -11.0345 4.10346 16.0738 -19.7132 8.71457 -28.8177 1.3826 0.0462048 0.000530889 0.662642 
-12.3087 94.8406 -7.58428 -8.99506 -0.502815 -85.24 -6.59727 -21.6709 -0.234721 0.884893 23.9847 21.918 5.15452 -3.73676 -0.158492 -1.32533e-009 8.75226e-006 -1.4724e-008 -19.4443 13.4295 -7.14733 18.9612 -0.718122 -12.6131 29.5654 1.53418 0.19098 21.3233 -21.4796 -46.8585 50.2015 10.8549 65.7285 -1.84541 9.9295 -11.6127 1.37911 -0.093762 4.73636 -68.376 -6.18172 -104.305 -17.3828 56.8535 14.831 5.82328 9.61819 -0.917488 0.399877 0.770442 15.2727 4.71869 23.1289 -22.3062 0.317369 25.8132 -5.09632 15.494 -28.4257 2.61298 0.0462048 0.000530889 0.662642 
-16.2932 94.303 -7.29671 -9.31097 -1.96009 -85.2783 -9.81009 -21.9855 -5.44775 1.35477 30.1783 24.7824 7.47172 -4.82023 -0.17354 -1.32533e-009 8.75226e-006 -1.4724e-008 -21.7456 14.8352 -6.5315 20.0132 -1.93581 -12.5244 29.0208 1.4946 0.134492 20.0639 -24.4868 -48.0257 46.8876 10.1082 64.5252 -2.04051 9.93237 -10.7595 1.5078 -0.11186 5.0683 -69.2213 -4.43242 -104.618 -16.839 57.9754 13.8608 5.82328 9.61819 -0.917488 1.04789 -0.876372 14.621 0.0829566 18.6121 -19.4813 -0.928769 40.9603 -3.51268 20.9892 -21.7259 2.39857 0.0462048 0.000530889 0.662642 
-19.7168 94.1819 -6.9822 -9.75268 -3.28902 -86.748 -11.7466 -21.06 -7.37068 1.4631 34.0242 28.0942 6.56356 -8.42242 0.0737159 -1.32533e-009 8.75226e-006 -1.4724e-008 -23.1359 15.9748 -4.97876 19.8383 -2.71121 -11.2802 28.6948 1.45729 0.0608315 21.1296 -28.825 -44.9501 43.8646 10.1038 63.8327 -2.43906 9.94214 -10.0517 -0.615157 -0.0782597 4.38486 -67.8092 -4.2999 -103.209 -13.5561 57.8047 7.63678 5.82328 9.61819 -0.917488 1.39986 -2.59707 13.3508 -3.91033 10.3762 -12.6229 -1.05642 58.2785 -6.11965 20.9091 -8.64211 0.0671365 0.0462048 0.000530889 0.662642 
